<?xml version="1.0" standalone="no"?>
<!DOCTYPE svg PUBLIC "-//W3C//DTD SVG 20010904//EN"
 "http://www.w3.org/TR/2001/REC-SVG-20010904/DTD/svg10.dtd">
<svg version="1.0" xmlns="http://www.w3.org/2000/svg"
 width="685.000000pt" height="350.000000pt" viewBox="0 0 685.000000 350.000000"
 preserveAspectRatio="xMidYMid meet">
<metadata>
Created by potrace 1.15, written by Peter Selinger 2001-2017
</metadata>
<g transform="translate(0.000000,350.000000) scale(0.100000,-0.100000)"
fill="#000000" stroke="none">
<path d="M0 1750 l0 -1750 3425 0 3425 0 0 1750 0 1750 -3425 0 -3425 0 0
-1750z m5758 1512 c2 -141 0 -163 -13 -169 -9 -3 -20 -2 -25 3 -12 12 -25 272
-16 308 5 21 12 27 29 24 22 -3 22 -6 25 -166z m596 146 c9 -35 7 -291 -3
-306 -5 -8 -17 -12 -27 -10 -17 3 -19 16 -22 158 -1 85 0 160 2 167 9 22 43
15 50 -9z m-669 -438 c0 -21 -5 -25 -32 -25 -38 -1 -73 -30 -73 -61 0 -30 40
-57 77 -52 24 3 28 0 28 -22 0 -23 -4 -25 -48 -28 -43 -3 -51 0 -82 31 -39 39
-45 78 -20 127 20 39 61 60 110 57 35 -2 40 -5 40 -27z m333 3 c3 -20 -1 -23
-32 -23 -48 0 -46 -20 3 -43 64 -29 62 -95 -4 -122 -61 -26 -105 -15 -105 27
0 15 8 18 44 18 57 0 67 16 22 35 -89 37 -66 140 29 133 33 -2 41 -7 43 -25z
m237 7 c9 -27 -3 -43 -28 -36 -11 3 -33 -2 -49 -10 -56 -29 -23 -111 41 -102
23 3 32 0 37 -14 8 -28 -4 -38 -46 -38 -76 0 -120 43 -120 115 0 30 7 44 36
71 29 28 43 34 79 34 35 0 45 -4 50 -20z m225 5 c51 -26 75 -99 49 -148 -34
-62 -122 -78 -178 -31 -102 85 10 240 129 179z m-4521 -241 c30 -10 -10 -29
-62 -29 l-52 0 -3 -173 c-2 -158 -4 -173 -20 -170 -15 3 -18 23 -22 173 l-5
170 -45 1 c-70 3 -72 3 -68 17 3 6 20 14 39 17 39 6 217 2 238 -6z m89 -82 l3
-82 99 0 100 0 0 79 c0 76 10 105 30 85 5 -5 10 -90 12 -189 l3 -180 -22 -3
c-22 -3 -23 -1 -23 82 l0 84 -82 4 c-123 5 -117 9 -120 -85 -3 -69 -6 -82 -20
-85 -17 -3 -18 11 -18 188 0 177 1 191 18 188 14 -3 17 -16 20 -86z m542 73
c0 -12 -15 -15 -79 -15 -111 0 -111 0 -111 -76 l0 -63 88 -3 c69 -2 87 -6 87
-18 0 -12 -18 -16 -88 -18 l-88 -3 3 -67 3 -67 93 -3 c73 -2 92 -6 92 -17 0
-12 -20 -15 -110 -15 l-110 0 0 190 0 190 110 0 c91 0 110 -3 110 -15z m1158
-474 c8 -23 18 -29 51 -35 23 -3 55 -18 73 -35 31 -27 70 -51 82 -51 3 0 6 18
6 39 0 35 14 61 25 49 2 -2 5 -39 6 -81 1 -49 6 -77 13 -77 6 0 47 36 91 80
71 72 105 95 105 72 0 -4 -39 -46 -86 -92 l-86 -85 96 -91 c86 -83 101 -104
74 -104 -6 0 -49 38 -98 85 -49 47 -93 85 -99 85 -7 0 -11 -31 -11 -86 0 -64
-3 -85 -12 -82 -9 3 -15 44 -19 139 -3 87 -8 126 -13 111 -5 -12 -19 -25 -31
-28 -13 -3 -33 -17 -46 -30 -12 -13 -28 -24 -36 -24 -21 0 -16 -15 31 -87 24
-38 42 -71 39 -75 -10 -18 -26 -4 -70 65 -26 39 -51 75 -57 80 -6 4 -31 6 -56
5 l-45 -3 -2 -64 c-2 -72 -8 -95 -23 -86 -6 4 -10 77 -10 189 0 178 1 184 21
189 12 3 18 10 15 16 -8 13 21 41 44 41 11 0 22 -11 28 -29z m-287 -31 c62
-17 109 -102 109 -195 0 -77 -22 -125 -71 -157 -54 -35 -88 -42 -140 -28 -113
31 -165 197 -97 308 40 66 119 94 199 72z m-1536 -132 c49 -73 95 -137 102
-141 7 -4 14 -16 15 -25 1 -9 5 53 8 138 4 129 8 155 20 155 13 0 15 -27 15
-185 0 -178 -1 -185 -20 -187 -16 -2 -41 30 -120 152 -55 85 -103 154 -107
155 -5 0 -8 -70 -8 -155 0 -131 -2 -155 -15 -155 -13 0 -15 28 -15 190 0 242
1 242 125 58z m465 117 c0 -11 -19 -15 -92 -17 l-93 -3 0 -65 0 -65 83 -5 c45
-3 82 -9 82 -15 0 -5 -37 -12 -82 -15 l-83 -5 0 -70 0 -70 95 -5 c53 -3 95 -9
95 -15 0 -16 -217 -19 -226 -3 -8 13 -10 346 -2 361 2 4 53 7 114 7 89 0 109
-3 109 -15z m384 -53 c10 -37 24 -87 31 -112 7 -25 18 -64 24 -87 7 -24 15
-43 19 -43 4 0 22 53 40 118 57 198 55 192 79 192 18 0 25 -9 34 -42 6 -24 21
-79 34 -123 13 -44 26 -95 30 -112 14 -66 22 -52 70 127 33 122 42 145 56 145
17 0 18 2 -16 -120 -62 -226 -70 -250 -91 -250 -20 0 -33 30 -69 160 -49 176
-50 177 -78 75 -66 -239 -67 -240 -93 -240 -17 0 -27 24 -56 129 -11 42 -24
90 -29 106 -4 17 -13 50 -20 76 l-11 45 -62 -4 c-33 -2 -66 -5 -73 -7 -9 -3
-12 -48 -12 -172 1 -147 -1 -168 -15 -171 -14 -3 -16 16 -16 172 l0 176 -59 0
c-56 0 -79 9 -64 24 4 4 79 6 168 5 l161 -1 18 -66z m2129 -684 c13 -31 12
-34 -7 -41 -34 -13 -41 -31 -38 -95 l4 -62 86 -2 87 -2 -87 -3 -88 -4 0 -84 0
-84 68 -4 67 -4 -75 1 -75 1 -5 175 c-3 96 -9 182 -13 191 -10 20 16 49 44 49
12 0 24 -12 32 -32z m-653 -13 c7 -8 29 -15 49 -16 l36 -1 -32 -9 c-22 -7 -33
-16 -33 -28 0 -11 -6 -22 -12 -24 -8 -3 -6 -6 5 -6 10 -1 25 -16 34 -36 16
-33 15 -36 -2 -55 -19 -21 -50 -26 -60 -10 -16 25 -25 -8 -25 -91 0 -50 -4
-89 -10 -89 -5 0 -9 57 -9 143 0 104 -3 149 -14 169 -8 15 -17 25 -20 21 -4
-3 -7 -2 -7 4 0 15 42 42 66 42 12 1 27 -6 34 -14z"/>
<path d="M3674 2187 c-3 -8 -4 -45 -2 -83 l3 -69 40 -3 c94 -8 135 15 141 80
5 41 2 48 -22 67 -21 16 -41 21 -91 21 -44 0 -65 -4 -69 -13z"/>
<path d="M3350 2193 c-19 -10 -45 -34 -58 -53 -21 -31 -23 -44 -20 -113 3 -76
4 -80 40 -113 46 -41 78 -50 129 -35 79 24 121 141 85 236 -30 77 -109 112
-176 78z"/>
</g>
</svg>
